<?xml version="1.0" encoding="UTF-8"?>
<svg width="13px" height="16px" viewBox="0 0 13 16" version="1.1" xmlns="http://www.w3.org/2000/svg" xmlns:xlink="http://www.w3.org/1999/xlink">
    <title>Icon/Avatar</title>
    <g id="Page-1" stroke="none" stroke-width="1" fill="none" fill-rule="evenodd">
        <g id="About" transform="translate(-1069.000000, -9.000000)" fill="#252932" fill-rule="nonzero">
            <g id="Icon/Avatar" transform="translate(1069.000000, 9.000000)">
                <path d="M8.67551314,5.8745102 C9.37447032,5.20550782 9.72878933,4.38694194 9.72878933,3.44126887 C9.72878933,2.49592283 9.37447032,1.67724793 8.67539925,1.00802753 C7.97632818,0.339134169 7.12099685,0 6.13320875,0 C5.14519287,0 4.28997543,0.339134169 3.59101825,1.00813655 C2.89206108,1.67713892 2.53762817,2.49581382 2.53762817,3.44126887 C2.53762817,4.38694194 2.89206108,5.20561683 3.59113214,5.87461921 C4.29020321,6.54351258 5.14553454,6.88275576 6.13320875,6.88275576 L6.13320875,6.88275576 C7.12111075,6.88275576 7.97655597,6.54362159 8.67551314,5.8745102 Z" id="Vector"></path>
                <path d="M12.3035746,10.3614983 C12.2429833,9.98648987 12.1649663,9.63197768 12.0715737,9.30795722 C11.9751059,8.97305595 11.843901,8.6423301 11.6817166,8.32539478 C11.5133819,7.99644002 11.3156628,7.70999626 11.0937982,7.47428754 C10.8617971,7.22769796 10.577746,7.02943943 10.2492771,6.88482587 C9.92194711,6.74097139 9.5591967,6.66809527 9.17116148,6.66809527 C9.01877195,6.66809527 8.87139365,6.73755538 8.58677376,6.94340512 C8.41160556,7.07030576 8.2067111,7.21707019 7.97801292,7.37939674 C7.78245777,7.5178108 7.51754138,7.64749488 7.19032532,7.76490644 C6.8710818,7.87966102 6.5469409,7.93786075 6.22701398,7.93786075 C5.90708708,7.93786075 5.58306014,7.87966102 5.26347497,7.76490644 C4.93660056,7.6476214 4.67168436,7.51793736 4.47635701,7.3795233 C4.24982278,7.218715 4.04481429,7.07195051 3.86702654,6.94327859 C3.58274832,6.73742885 3.43525622,6.66796875 3.28286672,6.66796875 C2.89471762,6.66796875 2.53208072,6.7409714 2.20486467,6.8849524 C1.87662351,7.02931291 1.59245914,7.22757143 1.36023024,7.47441404 C1.13847955,7.71024931 0.940646534,7.99656654 0.772539705,8.32539478 C0.61046921,8.6423301 0.479263918,8.97292939 0.382682218,9.30808372 C0.28940342,9.63210418 0.211386359,9.98648987 0.150795009,10.3614983 C0.0907731177,10.7332172 0.0499992606,11.0858313 0.0298401143,11.4097252 C0.010022629,11.7270401 0,12.0563742 0,12.3889981 C0,13.2546553 0.247718379,13.9554557 0.736207681,14.4722942 C1.21866062,14.9823007 1.85703387,15.2410364 2.63333207,15.2410364 L9.82137959,15.2410364 C10.5976778,15.2410364 11.2358233,14.9824272 11.7183901,14.4722942 C12.2069933,13.9558353 12.4547119,13.2549086 12.4547119,12.3888718 C12.4547119,12.0547297 12.444461,11.7251421 12.4245296,11.4093455 C12.4043704,11.0862107 12.3635965,10.7337233 12.3035746,10.3614983 Z" id="Vector"></path>
            </g>
        </g>
    </g>
</svg>