<?xml version="1.0" encoding="UTF-8"?>
<svg width="32px" height="32px" viewBox="0 0 32 32" version="1.1" xmlns="http://www.w3.org/2000/svg" xmlns:xlink="http://www.w3.org/1999/xlink">
    <title>Ellipse 131</title>
    <g id="Page-1" stroke="none" stroke-width="1" fill="none" fill-rule="evenodd">
        <g id="About" transform="translate(-963.000000, -3986.000000)">
            <g id="Desktop/Footer" transform="translate(0.000000, 3574.000000)">
                <g id="Ellipse-131" transform="translate(963.000000, 412.000000)">
                    <path d="M16,32 C24.836556,32 32,24.836556 32,16 C32,7.163444 24.836556,0 16,0 C7.163444,0 0,7.163444 0,16 C0,24.836556 7.163444,32 16,32 Z" id="Ellipse-130" fill="#FFFFFF"></path>
                    <path d="M8.08054698,19 L8.08054698,13 L2,13 L2,19 L8.08054698,19 Z M5.62533401,15.42269 L5.62533401,14.1548536 L6.91018965,14.1548536 L6.91018965,15.42269 L5.62533401,15.42269 Z M4.45568739,14.1548536 L4.45568739,16.5773086 L6.91018965,16.5773086 L6.91018965,17.845145 L3.17011982,17.845145 L3.17011982,14.1548536 L4.45568739,14.1548536 Z M10.3510462,13.5055913 C9.8510758,13.8352355 9.46139757,14.3037716 9.23128646,14.8519497 C9.00117535,15.4001279 8.94096789,16.0033274 9.05827752,16.5852702 C9.17558715,17.1672131 9.46514466,17.7017618 9.89033454,18.1213192 C10.3155244,18.5408767 10.8572501,18.8265989 11.4470054,18.9423545 C12.0367607,19.0581101 12.6480571,18.9987001 13.2035945,18.7716373 C13.7591318,18.5445745 14.2339579,18.1600565 14.5680275,17.6667091 C14.9020971,17.1733618 15.0804072,16.5933432 15.0804072,16 C15.0794661,15.2046352 14.7588499,14.4421134 14.1888919,13.8797055 C13.6189339,13.3172977 12.8461741,13.0009286 12.0401323,13 C11.438823,13 10.8510166,13.1759472 10.3510462,13.5055913 Z M11.0012619,17.5341819 C10.6937557,17.3314347 10.4540849,17.0432627 10.3125554,16.7061064 C10.1710258,16.3689501 10.1339943,15.9979527 10.2061454,15.6400295 C10.2782966,15.2821063 10.4563889,14.9533323 10.7179014,14.6952841 C10.9794139,14.4372358 11.3126016,14.2615029 11.6753299,14.1903075 C12.0380581,14.1191122 12.4140356,14.155652 12.7557182,14.2953067 C13.0974007,14.4349614 13.389442,14.6714584 13.5949111,14.974891 C13.8003802,15.2783237 13.910049,15.6350641 13.910049,16 C13.9092966,16.4891344 13.712047,16.9580236 13.3615326,17.3038947 C13.0110182,17.6497658 12.5358339,17.8444025 12.0401323,17.845145 C11.6702977,17.845145 11.308768,17.7369291 11.0012619,17.5341819 Z M24.2708127,13.5054771 C23.7708112,13.8350931 23.3810938,14.3036134 23.1509463,14.8517874 C22.9207989,15.3999615 22.8605584,16.0031682 22.9778413,16.5851264 C23.0951241,17.1670847 23.3846629,17.7016556 23.8098433,18.1212364 C24.2350238,18.5408172 24.7767492,18.8265628 25.366511,18.9423374 C25.9562728,19.058112 26.5675812,18.9987156 27.1231323,18.7716596 C27.6786835,18.5446036 28.1535233,18.1600866 28.4876034,17.6667342 C28.8216834,17.1733818 29,16.5933532 29,16 C28.999059,15.2046757 28.6784747,14.4421887 28.1085679,13.8797876 C27.5386611,13.3173865 26.7659633,13.0009905 25.9599626,13 C25.3586432,13 24.7708143,13.1758611 24.2708127,13.5054771 Z M24.9210268,17.5342958 C24.6134894,17.3315767 24.3737819,17.0434199 24.232216,16.7062677 C24.0906501,16.3691155 24.0535856,15.9981117 24.12571,15.6401731 C24.1978343,15.2822345 24.3759088,14.9534386 24.6374119,14.6953669 C24.8989149,14.4372953 25.2321023,14.2615387 25.594837,14.1903244 C25.9575718,14.1191101 26.3335621,14.1556365 26.6752585,14.2952843 C27.0169549,14.4349322 27.3090066,14.6714292 27.5144861,14.9748669 C27.7199657,15.2783047 27.8296402,15.6350541 27.8296402,16 C27.828888,16.489094 27.631671,16.957947 27.2812078,17.3038114 C26.9307447,17.6496759 26.4556231,17.8443407 25.9599626,17.845145 C25.590118,17.8451912 25.2285642,17.7370149 24.9210268,17.5342958 Z M17.3108422,13.5055913 C16.8108718,13.8352355 16.4211936,14.3037716 16.1910825,14.8519497 C15.9609714,15.4001279 15.9007647,16.0033274 16.0180743,16.5852702 C16.135384,17.1672131 16.4249415,17.7017618 16.8501314,18.1213192 C17.2753212,18.5408767 17.8170453,18.8265989 18.4068006,18.9423545 C18.9965559,19.0581101 19.6078539,18.9987001 20.1633913,18.7716373 C20.7189287,18.5445745 21.1937539,18.1600565 21.5278235,17.6667091 C21.8618931,17.1733618 22.0402024,16.5933432 22.0402024,16 C22.0392613,15.2046352 21.7186459,14.4421134 21.1486879,13.8797055 C20.5787299,13.3172977 19.8059709,13.0009286 18.9999291,13 C18.3986198,13 17.8108127,13.1759472 17.3108422,13.5055913 Z M18.0234722,17.5741581 C17.7295062,17.3967798 17.4909249,17.1427008 17.3340652,16.8399677 C17.1772055,16.5372346 17.1081671,16.1976202 17.1345703,15.8586128 C17.1609735,15.5196055 17.2817919,15.1943888 17.4836888,14.9188617 C17.6855857,14.6433346 17.960709,14.4282121 18.2786905,14.2972403 C18.596672,14.1662685 18.9451458,14.1245412 19.2856445,14.1766638 C19.6261431,14.2287863 19.9454264,14.3727316 20.2082489,14.5926112 C20.4710715,14.8124907 20.6672119,15.0997539 20.7750216,15.42269 L18.9999291,15.42269 L18.9999291,16.5773086 L20.7750216,16.5773086 C20.651548,16.9458032 20.413631,17.2665836 20.0950133,17.4941519 C19.7763957,17.7217202 19.3932533,17.8445238 18.9999291,17.845145 C18.6553576,17.8453158 18.3174381,17.7515364 18.0234722,17.5741581 Z" id="Vector" fill="#E11837"></path>
                </g>
            </g>
        </g>
    </g>
</svg>