<?xml version="1.0" encoding="UTF-8"?>
<svg width="184px" height="275px" viewBox="0 0 184 275" version="1.1" xmlns="http://www.w3.org/2000/svg" xmlns:xlink="http://www.w3.org/1999/xlink">
    <title>Group 556</title>
    <g id="Page-1" stroke="none" stroke-width="1" fill="none" fill-rule="evenodd">
        <g id="About" transform="translate(-1264.000000, -164.000000)">
            <g id="Desktop/Header-Banner-2" transform="translate(0.000000, 164.000000)">
                <g id="Group-556" transform="translate(1264.000000, 0.000000)">
                    <g id="Group-176" transform="translate(0.000006, 102.999980)" fill="#FFFFFF">
                        <path d="M92.499995,98.0000201 C95.5375611,98.0000201 97.999995,95.5375862 97.999995,92.5000201 C97.999995,89.4624539 95.5375611,87.0000201 92.499995,87.0000201 C89.4624289,87.0000201 86.999995,89.4624539 86.999995,92.5000201 C86.999995,95.5375862 89.4624289,98.0000201 92.499995,98.0000201 Z" id="Ellipse-106" fill-opacity="0.400000006" transform="translate(92.499995, 92.500020) rotate(-179.999996) translate(-92.499995, -92.500020) "></path>
                        <path d="M121.499995,98.0000201 C124.537561,98.0000201 126.999995,95.5375862 126.999995,92.5000201 C126.999995,89.4624539 124.537561,87.0000201 121.499995,87.0000201 C118.462429,87.0000201 115.999995,89.4624539 115.999995,92.5000201 C115.999995,95.5375862 118.462429,98.0000201 121.499995,98.0000201 Z" id="Ellipse-122" fill-opacity="0.200000003" transform="translate(121.499995, 92.500020) rotate(-179.999996) translate(-121.499995, -92.500020) "></path>
                        <path d="M150.499995,98.0000201 C153.537561,98.0000201 155.999995,95.5375862 155.999995,92.5000201 C155.999995,89.4624539 153.537561,87.0000201 150.499995,87.0000201 C147.462429,87.0000201 144.999995,89.4624539 144.999995,92.5000201 C144.999995,95.5375862 147.462429,98.0000201 150.499995,98.0000201 Z" id="Ellipse-126" fill-opacity="0.100000001" transform="translate(150.499995, 92.500020) rotate(-179.999996) translate(-150.499995, -92.500020) "></path>
                        <path d="M92.499995,40.0000201 C95.5375611,40.0000201 97.999995,37.5375862 97.999995,34.5000201 C97.999995,31.4624539 95.5375611,29.0000201 92.499995,29.0000201 C89.4624289,29.0000201 86.999995,31.4624539 86.999995,34.5000201 C86.999995,37.5375862 89.4624289,40.0000201 92.499995,40.0000201 Z" id="Ellipse-114" fill-opacity="0.400000006" transform="translate(92.499995, 34.500020) rotate(-179.999996) translate(-92.499995, -34.500020) "></path>
                        <path d="M121.499995,40.0000201 C124.537561,40.0000201 126.999995,37.5375862 126.999995,34.5000201 C126.999995,31.4624539 124.537561,29.0000201 121.499995,29.0000201 C118.462429,29.0000201 115.999995,31.4624539 115.999995,34.5000201 C115.999995,37.5375862 118.462429,40.0000201 121.499995,40.0000201 Z" id="Ellipse-123" fill-opacity="0.200000003" transform="translate(121.499995, 34.500020) rotate(-179.999996) translate(-121.499995, -34.500020) "></path>
                        <path d="M150.499995,40.0000201 C153.537561,40.0000201 155.999995,37.5375862 155.999995,34.5000201 C155.999995,31.4624539 153.537561,29.0000201 150.499995,29.0000201 C147.462429,29.0000201 144.999995,31.4624539 144.999995,34.5000201 C144.999995,37.5375862 147.462429,40.0000201 150.499995,40.0000201 Z" id="Ellipse-127" fill-opacity="0.100000001" transform="translate(150.499995, 34.500020) rotate(-179.999996) translate(-150.499995, -34.500020) "></path>
                        <path d="M92.499995,69.0000201 C95.5375611,69.0000201 97.999995,66.5375862 97.999995,63.5000201 C97.999995,60.4624539 95.5375611,58.0000201 92.499995,58.0000201 C89.4624289,58.0000201 86.999995,60.4624539 86.999995,63.5000201 C86.999995,66.5375862 89.4624289,69.0000201 92.499995,69.0000201 Z" id="Ellipse-110" fill-opacity="0.400000006" transform="translate(92.499995, 63.500020) rotate(-179.999996) translate(-92.499995, -63.500020) "></path>
                        <path d="M121.499995,69.0000201 C124.537561,69.0000201 126.999995,66.5375862 126.999995,63.5000201 C126.999995,60.4624539 124.537561,58.0000201 121.499995,58.0000201 C118.462429,58.0000201 115.999995,60.4624539 115.999995,63.5000201 C115.999995,66.5375862 118.462429,69.0000201 121.499995,69.0000201 Z" id="Ellipse-124" fill-opacity="0.200000003" transform="translate(121.499995, 63.500020) rotate(-179.999996) translate(-121.499995, -63.500020) "></path>
                        <path d="M150.499995,69.0000201 C153.537561,69.0000201 155.999995,66.5375862 155.999995,63.5000201 C155.999995,60.4624539 153.537561,58.0000201 150.499995,58.0000201 C147.462429,58.0000201 144.999995,60.4624539 144.999995,63.5000201 C144.999995,66.5375862 147.462429,69.0000201 150.499995,69.0000201 Z" id="Ellipse-128" fill-opacity="0.100000001" transform="translate(150.499995, 63.500020) rotate(-179.999996) translate(-150.499995, -63.500020) "></path>
                        <path d="M92.499995,11.0000201 C95.5375611,11.0000201 97.999995,8.53758618 97.999995,5.50002006 C97.999995,2.46245394 95.5375611,2.00604197e-05 92.499995,2.00604197e-05 C89.4624289,2.00604197e-05 86.999995,2.46245394 86.999995,5.50002006 C86.999995,8.53758618 89.4624289,11.0000201 92.499995,11.0000201 Z" id="Ellipse-115" fill-opacity="0.400000006" transform="translate(92.499995, 5.500020) rotate(-179.999996) translate(-92.499995, -5.500020) "></path>
                        <path d="M121.499995,11.0000201 C124.537561,11.0000201 126.999995,8.53758618 126.999995,5.50002006 C126.999995,2.46245394 124.537561,2.00604197e-05 121.499995,2.00604197e-05 C118.462429,2.00604197e-05 115.999995,2.46245394 115.999995,5.50002006 C115.999995,8.53758618 118.462429,11.0000201 121.499995,11.0000201 Z" id="Ellipse-125" fill-opacity="0.200000003" transform="translate(121.499995, 5.500020) rotate(-179.999996) translate(-121.499995, -5.500020) "></path>
                        <path d="M150.499995,11.0000201 C153.537561,11.0000201 155.999995,8.53758618 155.999995,5.50002006 C155.999995,2.46245394 153.537561,2.00604197e-05 150.499995,2.00604197e-05 C147.462429,2.00604197e-05 144.999995,2.46245394 144.999995,5.50002006 C144.999995,8.53758618 147.462429,11.0000201 150.499995,11.0000201 Z" id="Ellipse-129" fill-opacity="0.100000001" transform="translate(150.499995, 5.500020) rotate(-179.999996) translate(-150.499995, -5.500020) "></path>
                        <path d="M63.499995,98.0000201 C66.5375611,98.0000201 68.999995,95.5375862 68.999995,92.5000201 C68.999995,89.4624539 66.5375611,87.0000201 63.499995,87.0000201 C60.4624289,87.0000201 57.999995,89.4624539 57.999995,92.5000201 C57.999995,95.5375862 60.4624289,98.0000201 63.499995,98.0000201 Z" id="Ellipse-107" fill-opacity="0.600000024" transform="translate(63.499995, 92.500020) rotate(-179.999996) translate(-63.499995, -92.500020) "></path>
                        <path d="M63.499995,40.0000201 C66.5375611,40.0000201 68.999995,37.5375862 68.999995,34.5000201 C68.999995,31.4624539 66.5375611,29.0000201 63.499995,29.0000201 C60.4624289,29.0000201 57.999995,31.4624539 57.999995,34.5000201 C57.999995,37.5375862 60.4624289,40.0000201 63.499995,40.0000201 Z" id="Ellipse-116" fill-opacity="0.600000024" transform="translate(63.499995, 34.500020) rotate(-179.999996) translate(-63.499995, -34.500020) "></path>
                        <path d="M63.499995,69.0000201 C66.5375611,69.0000201 68.999995,66.5375862 68.999995,63.5000201 C68.999995,60.4624539 66.5375611,58.0000201 63.499995,58.0000201 C60.4624289,58.0000201 57.999995,60.4624539 57.999995,63.5000201 C57.999995,66.5375862 60.4624289,69.0000201 63.499995,69.0000201 Z" id="Ellipse-111" fill-opacity="0.600000024" transform="translate(63.499995, 63.500020) rotate(-179.999996) translate(-63.499995, -63.500020) "></path>
                        <path d="M63.499995,11.0000201 C66.5375611,11.0000201 68.999995,8.53758618 68.999995,5.50002006 C68.999995,2.46245394 66.5375611,2.00604197e-05 63.499995,2.00604197e-05 C60.4624289,2.00604197e-05 57.999995,2.46245394 57.999995,5.50002006 C57.999995,8.53758618 60.4624289,11.0000201 63.499995,11.0000201 Z" id="Ellipse-117" fill-opacity="0.600000024" transform="translate(63.499995, 5.500020) rotate(-179.999996) translate(-63.499995, -5.500020) "></path>
                        <path d="M34.499995,98.0000201 C37.5375611,98.0000201 39.999995,95.5375862 39.999995,92.5000201 C39.999995,89.4624539 37.5375611,87.0000201 34.499995,87.0000201 C31.4624289,87.0000201 28.999995,89.4624539 28.999995,92.5000201 C28.999995,95.5375862 31.4624289,98.0000201 34.499995,98.0000201 Z" id="Ellipse-108" fill-opacity="0.800000012" transform="translate(34.499995, 92.500020) rotate(-179.999996) translate(-34.499995, -92.500020) "></path>
                        <path d="M34.499995,40.0000201 C37.5375611,40.0000201 39.999995,37.5375862 39.999995,34.5000201 C39.999995,31.4624539 37.5375611,29.0000201 34.499995,29.0000201 C31.4624289,29.0000201 28.999995,31.4624539 28.999995,34.5000201 C28.999995,37.5375862 31.4624289,40.0000201 34.499995,40.0000201 Z" id="Ellipse-118" fill-opacity="0.800000012" transform="translate(34.499995, 34.500020) rotate(-179.999996) translate(-34.499995, -34.500020) "></path>
                        <path d="M34.499995,69.0000201 C37.5375611,69.0000201 39.999995,66.5375862 39.999995,63.5000201 C39.999995,60.4624539 37.5375611,58.0000201 34.499995,58.0000201 C31.4624289,58.0000201 28.999995,60.4624539 28.999995,63.5000201 C28.999995,66.5375862 31.4624289,69.0000201 34.499995,69.0000201 Z" id="Ellipse-112" fill-opacity="0.800000012" transform="translate(34.499995, 63.500020) rotate(-179.999996) translate(-34.499995, -63.500020) "></path>
                        <path d="M34.499995,11.0000201 C37.5375611,11.0000201 39.999995,8.53758618 39.999995,5.50002006 C39.999995,2.46245394 37.5375611,2.00604197e-05 34.499995,2.00604197e-05 C31.4624289,2.00604197e-05 28.999995,2.46245394 28.999995,5.50002006 C28.999995,8.53758618 31.4624289,11.0000201 34.499995,11.0000201 Z" id="Ellipse-119" fill-opacity="0.800000012" transform="translate(34.499995, 5.500020) rotate(-179.999996) translate(-34.499995, -5.500020) "></path>
                        <path d="M5.49999498,98.0000201 C8.5375611,98.0000201 10.999995,95.5375862 10.999995,92.5000201 C10.999995,89.4624539 8.5375611,87.0000201 5.49999498,87.0000201 C2.46242886,87.0000201 -5.0198156e-06,89.4624539 -5.0198156e-06,92.5000201 C-5.0198156e-06,95.5375862 2.46242886,98.0000201 5.49999498,98.0000201 Z" id="Ellipse-109" fill-opacity="0.850000024" transform="translate(5.499995, 92.500020) rotate(-179.999996) translate(-5.499995, -92.500020) "></path>
                        <path d="M5.49999498,40.0000201 C8.5375611,40.0000201 10.999995,37.5375862 10.999995,34.5000201 C10.999995,31.4624539 8.5375611,29.0000201 5.49999498,29.0000201 C2.46242886,29.0000201 -5.0198156e-06,31.4624539 -5.0198156e-06,34.5000201 C-5.0198156e-06,37.5375862 2.46242886,40.0000201 5.49999498,40.0000201 Z" id="Ellipse-120" fill-opacity="0.850000024" transform="translate(5.499995, 34.500020) rotate(-179.999996) translate(-5.499995, -34.500020) "></path>
                        <path d="M5.49999498,69.0000201 C8.5375611,69.0000201 10.999995,66.5375862 10.999995,63.5000201 C10.999995,60.4624539 8.5375611,58.0000201 5.49999498,58.0000201 C2.46242886,58.0000201 -5.0198156e-06,60.4624539 -5.0198156e-06,63.5000201 C-5.0198156e-06,66.5375862 2.46242886,69.0000201 5.49999498,69.0000201 Z" id="Ellipse-113" fill-opacity="0.850000024" transform="translate(5.499995, 63.500020) rotate(-179.999996) translate(-5.499995, -63.500020) "></path>
                        <path d="M5.49999498,11.0000201 C8.5375611,11.0000201 10.999995,8.53758618 10.999995,5.50002006 C10.999995,2.46245394 8.5375611,2.00604197e-05 5.49999498,2.00604197e-05 C2.46242886,2.00604197e-05 -5.0198156e-06,2.46245394 -5.0198156e-06,5.50002006 C-5.0198156e-06,8.53758618 2.46242886,11.0000201 5.49999498,11.0000201 Z" id="Ellipse-121" fill-opacity="0.850000024" transform="translate(5.499995, 5.500020) rotate(-179.999996) translate(-5.499995, -5.500020) "></path>
                    </g>
                    <path d="M20,0 L20,245 L176,245" id="Rectangle-453" stroke="#FFFFFF" opacity="0.5" stroke-dasharray="0,0"></path>
                    <path d="M176,66 L49,66 L49,274 C160.896261,274 203.229594,274 176,274" id="Rectangle-454" stroke="#FFFFFF" opacity="0.5" stroke-dasharray="0,0"></path>
                </g>
            </g>
        </g>
    </g>
</svg>