<?xml version="1.0" encoding="UTF-8"?>
<svg width="116px" height="281px" viewBox="0 0 116 281" version="1.1" xmlns="http://www.w3.org/2000/svg" xmlns:xlink="http://www.w3.org/1999/xlink">
    <title>Group 2</title>
    <g id="Page-1" stroke="none" stroke-width="1" fill="none" fill-rule="evenodd">
        <g id="About" transform="translate(-587.000000, -3237.000000)">
            <g id="Group-232" transform="translate(62.000000, 3237.000000)">
                <g id="Group-2" transform="translate(525.000000, 0.000000)">
                    <g id="Group-176" transform="translate(0.000000, 167.000000)" fill="#FFFFFF">
                        <path d="M5.5,11 C8.53756612,11 11,8.53756612 11,5.5 C11,2.46243388 8.53756612,0 5.5,0 C2.46243388,0 0,2.46243388 0,5.5 C0,8.53756612 2.46243388,11 5.5,11 Z" id="Ellipse-106" fill-opacity="0.100000001"></path>
                        <path d="M5.5,69 C8.53756612,69 11,66.5375661 11,63.5 C11,60.4624339 8.53756612,58 5.5,58 C2.46243388,58 0,60.4624339 0,63.5 C0,66.5375661 2.46243388,69 5.5,69 Z" id="Ellipse-114" fill-opacity="0.100000001"></path>
                        <path d="M5.5,40 C8.53756612,40 11,37.5375661 11,34.5 C11,31.4624339 8.53756612,29 5.5,29 C2.46243388,29 0,31.4624339 0,34.5 C0,37.5375661 2.46243388,40 5.5,40 Z" id="Ellipse-110" fill-opacity="0.100000001"></path>
                        <path d="M5.5,98 C8.53756612,98 11,95.5375661 11,92.5 C11,89.4624339 8.53756612,87 5.5,87 C2.46243388,87 0,89.4624339 0,92.5 C0,95.5375661 2.46243388,98 5.5,98 Z" id="Ellipse-115" fill-opacity="0.100000001"></path>
                        <path d="M34.5,11 C37.5375661,11 40,8.53756612 40,5.5 C40,2.46243388 37.5375661,0 34.5,0 C31.4624339,0 29,2.46243388 29,5.5 C29,8.53756612 31.4624339,11 34.5,11 Z" id="Ellipse-107" fill-opacity="0.25"></path>
                        <path d="M34.5,69 C37.5375661,69 40,66.5375661 40,63.5 C40,60.4624339 37.5375661,58 34.5,58 C31.4624339,58 29,60.4624339 29,63.5 C29,66.5375661 31.4624339,69 34.5,69 Z" id="Ellipse-116" fill-opacity="0.25"></path>
                        <path d="M34.5,40 C37.5375661,40 40,37.5375661 40,34.5 C40,31.4624339 37.5375661,29 34.5,29 C31.4624339,29 29,31.4624339 29,34.5 C29,37.5375661 31.4624339,40 34.5,40 Z" id="Ellipse-111" fill-opacity="0.25"></path>
                        <path d="M34.5,98 C37.5375661,98 40,95.5375661 40,92.5 C40,89.4624339 37.5375661,87 34.5,87 C31.4624339,87 29,89.4624339 29,92.5 C29,95.5375661 31.4624339,98 34.5,98 Z" id="Ellipse-117" fill-opacity="0.25"></path>
                        <path d="M63.5,11 C66.5375661,11 69,8.53756612 69,5.5 C69,2.46243388 66.5375661,0 63.5,0 C60.4624339,0 58,2.46243388 58,5.5 C58,8.53756612 60.4624339,11 63.5,11 Z" id="Ellipse-108" fill-opacity="0.5"></path>
                        <path d="M63.5,69 C66.5375661,69 69,66.5375661 69,63.5 C69,60.4624339 66.5375661,58 63.5,58 C60.4624339,58 58,60.4624339 58,63.5 C58,66.5375661 60.4624339,69 63.5,69 Z" id="Ellipse-118" fill-opacity="0.5"></path>
                        <path d="M63.5,40 C66.5375661,40 69,37.5375661 69,34.5 C69,31.4624339 66.5375661,29 63.5,29 C60.4624339,29 58,31.4624339 58,34.5 C58,37.5375661 60.4624339,40 63.5,40 Z" id="Ellipse-112" fill-opacity="0.5"></path>
                        <path d="M63.5,98 C66.5375661,98 69,95.5375661 69,92.5 C69,89.4624339 66.5375661,87 63.5,87 C60.4624339,87 58,89.4624339 58,92.5 C58,95.5375661 60.4624339,98 63.5,98 Z" id="Ellipse-119" fill-opacity="0.5"></path>
                        <path d="M92.5,11 C95.5375661,11 98,8.53756612 98,5.5 C98,2.46243388 95.5375661,0 92.5,0 C89.4624339,0 87,2.46243388 87,5.5 C87,8.53756612 89.4624339,11 92.5,11 Z" id="Ellipse-109" fill-opacity="0.850000024"></path>
                        <path d="M92.5,69 C95.5375661,69 98,66.5375661 98,63.5 C98,60.4624339 95.5375661,58 92.5,58 C89.4624339,58 87,60.4624339 87,63.5 C87,66.5375661 89.4624339,69 92.5,69 Z" id="Ellipse-120" fill-opacity="0.850000024"></path>
                        <path d="M92.5,40 C95.5375661,40 98,37.5375661 98,34.5 C98,31.4624339 95.5375661,29 92.5,29 C89.4624339,29 87,31.4624339 87,34.5 C87,37.5375661 89.4624339,40 92.5,40 Z" id="Ellipse-113" fill-opacity="0.850000024"></path>
                        <path d="M92.5,98 C95.5375661,98 98,95.5375661 98,92.5 C98,89.4624339 95.5375661,87 92.5,87 C89.4624339,87 87,89.4624339 87,92.5 C87,95.5375661 89.4624339,98 92.5,98 Z" id="Ellipse-121" fill-opacity="0.850000024"></path>
                    </g>
                    <path d="M78,0 L78,245 L116,245" id="Rectangle-453" stroke="#FFFFFF" opacity="0.5" stroke-dasharray="0,0"></path>
                    <path d="M116,71 L49,71 L49,281" id="Rectangle-454" stroke="#FFFFFF" opacity="0.5" stroke-dasharray="0,0"></path>
                </g>
            </g>
        </g>
    </g>
</svg>