<?xml version="1.0" encoding="UTF-8"?>
<svg width="127px" height="98px" viewBox="0 0 127 98" version="1.1" xmlns="http://www.w3.org/2000/svg" xmlns:xlink="http://www.w3.org/1999/xlink">
    <title>Group 554</title>
    <g id="Page-1" stroke="none" stroke-width="1" fill="none" fill-rule="evenodd">
        <g id="About-mobile" transform="translate(-17.000000, -1085.000000)" fill="#0D0D0D">
            <g id="Group-554" transform="translate(17.000000, 1085.000000)">
                <g id="Group-171" transform="translate(116.000000, 0.000000)">
                    <path d="M5.5,11 C8.53756612,11 11,8.53756612 11,5.5 C11,2.46243388 8.53756612,0 5.5,0 C2.46243388,0 0,2.46243388 0,5.5 C0,8.53756612 2.46243388,11 5.5,11 Z" id="Ellipse-106" transform="translate(5.500000, 5.500000) rotate(0.000000) translate(-5.500000, -5.500000) "></path>
                    <path d="M5.5,69 C8.53756612,69 11,66.5375661 11,63.5 C11,60.4624339 8.53756612,58 5.5,58 C2.46243388,58 0,60.4624339 0,63.5 C0,66.5375661 2.46243388,69 5.5,69 Z" id="Ellipse-114" transform="translate(5.500000, 63.500000) rotate(0.000000) translate(-5.500000, -63.500000) "></path>
                    <path d="M5.5,40 C8.53756612,40 11,37.5375661 11,34.5 C11,31.4624339 8.53756612,29 5.5,29 C2.46243388,29 0,31.4624339 0,34.5 C0,37.5375661 2.46243388,40 5.5,40 Z" id="Ellipse-110" transform="translate(5.500000, 34.500000) rotate(0.000000) translate(-5.500000, -34.500000) "></path>
                    <path d="M5.5,98 C8.53756612,98 11,95.5375661 11,92.5 C11,89.4624339 8.53756612,87 5.5,87 C2.46243388,87 0,89.4624339 0,92.5 C0,95.5375661 2.46243388,98 5.5,98 Z" id="Ellipse-115" transform="translate(5.500000, 92.500000) rotate(0.000000) translate(-5.500000, -92.500000) "></path>
                </g>
                <g id="Group-172" opacity="0.800000012" transform="translate(87.000000, 0.000000)">
                    <path d="M5.5,11 C8.53756612,11 11,8.53756612 11,5.5 C11,2.46243388 8.53756612,0 5.5,0 C2.46243388,0 0,2.46243388 0,5.5 C0,8.53756612 2.46243388,11 5.5,11 Z" id="Ellipse-106" transform="translate(5.500000, 5.500000) rotate(0.000000) translate(-5.500000, -5.500000) "></path>
                    <path d="M5.5,69 C8.53756612,69 11,66.5375661 11,63.5 C11,60.4624339 8.53756612,58 5.5,58 C2.46243388,58 0,60.4624339 0,63.5 C0,66.5375661 2.46243388,69 5.5,69 Z" id="Ellipse-114" transform="translate(5.500000, 63.500000) rotate(0.000000) translate(-5.500000, -63.500000) "></path>
                    <path d="M5.5,40 C8.53756612,40 11,37.5375661 11,34.5 C11,31.4624339 8.53756612,29 5.5,29 C2.46243388,29 0,31.4624339 0,34.5 C0,37.5375661 2.46243388,40 5.5,40 Z" id="Ellipse-110" transform="translate(5.500000, 34.500000) rotate(0.000000) translate(-5.500000, -34.500000) "></path>
                    <path d="M5.5,98 C8.53756612,98 11,95.5375661 11,92.5 C11,89.4624339 8.53756612,87 5.5,87 C2.46243388,87 0,89.4624339 0,92.5 C0,95.5375661 2.46243388,98 5.5,98 Z" id="Ellipse-115" transform="translate(5.500000, 92.500000) rotate(0.000000) translate(-5.500000, -92.500000) "></path>
                </g>
                <g id="Group-173" opacity="0.5" transform="translate(58.000000, 0.000000)">
                    <path d="M5.5,11 C8.53756612,11 11,8.53756612 11,5.5 C11,2.46243388 8.53756612,0 5.5,0 C2.46243388,0 0,2.46243388 0,5.5 C0,8.53756612 2.46243388,11 5.5,11 Z" id="Ellipse-106" transform="translate(5.500000, 5.500000) rotate(0.000000) translate(-5.500000, -5.500000) "></path>
                    <path d="M5.5,69 C8.53756612,69 11,66.5375661 11,63.5 C11,60.4624339 8.53756612,58 5.5,58 C2.46243388,58 0,60.4624339 0,63.5 C0,66.5375661 2.46243388,69 5.5,69 Z" id="Ellipse-114" transform="translate(5.500000, 63.500000) rotate(0.000000) translate(-5.500000, -63.500000) "></path>
                    <path d="M5.5,40 C8.53756612,40 11,37.5375661 11,34.5 C11,31.4624339 8.53756612,29 5.5,29 C2.46243388,29 0,31.4624339 0,34.5 C0,37.5375661 2.46243388,40 5.5,40 Z" id="Ellipse-110" transform="translate(5.500000, 34.500000) rotate(0.000000) translate(-5.500000, -34.500000) "></path>
                    <path d="M5.5,98 C8.53756612,98 11,95.5375661 11,92.5 C11,89.4624339 8.53756612,87 5.5,87 C2.46243388,87 0,89.4624339 0,92.5 C0,95.5375661 2.46243388,98 5.5,98 Z" id="Ellipse-115" transform="translate(5.500000, 92.500000) rotate(0.000000) translate(-5.500000, -92.500000) "></path>
                </g>
                <g id="Group-174" opacity="0.25" transform="translate(29.000000, 0.000000)">
                    <path d="M5.5,11 C8.53756612,11 11,8.53756612 11,5.5 C11,2.46243388 8.53756612,0 5.5,0 C2.46243388,0 0,2.46243388 0,5.5 C0,8.53756612 2.46243388,11 5.5,11 Z" id="Ellipse-106" transform="translate(5.500000, 5.500000) rotate(0.000000) translate(-5.500000, -5.500000) "></path>
                    <path d="M5.5,69 C8.53756612,69 11,66.5375661 11,63.5 C11,60.4624339 8.53756612,58 5.5,58 C2.46243388,58 0,60.4624339 0,63.5 C0,66.5375661 2.46243388,69 5.5,69 Z" id="Ellipse-114" transform="translate(5.500000, 63.500000) rotate(0.000000) translate(-5.500000, -63.500000) "></path>
                    <path d="M5.5,40 C8.53756612,40 11,37.5375661 11,34.5 C11,31.4624339 8.53756612,29 5.5,29 C2.46243388,29 0,31.4624339 0,34.5 C0,37.5375661 2.46243388,40 5.5,40 Z" id="Ellipse-110" transform="translate(5.500000, 34.500000) rotate(0.000000) translate(-5.500000, -34.500000) "></path>
                    <path d="M5.5,98 C8.53756612,98 11,95.5375661 11,92.5 C11,89.4624339 8.53756612,87 5.5,87 C2.46243388,87 0,89.4624339 0,92.5 C0,95.5375661 2.46243388,98 5.5,98 Z" id="Ellipse-115" transform="translate(5.500000, 92.500000) rotate(0.000000) translate(-5.500000, -92.500000) "></path>
                </g>
                <g id="Group-175" opacity="0.100000001">
                    <path d="M5.5,11 C8.53756612,11 11,8.53756612 11,5.5 C11,2.46243388 8.53756612,0 5.5,0 C2.46243388,0 0,2.46243388 0,5.5 C0,8.53756612 2.46243388,11 5.5,11 Z" id="Ellipse-106" transform="translate(5.500000, 5.500000) rotate(0.000000) translate(-5.500000, -5.500000) "></path>
                    <path d="M5.5,69 C8.53756612,69 11,66.5375661 11,63.5 C11,60.4624339 8.53756612,58 5.5,58 C2.46243388,58 0,60.4624339 0,63.5 C0,66.5375661 2.46243388,69 5.5,69 Z" id="Ellipse-114" transform="translate(5.500000, 63.500000) rotate(0.000000) translate(-5.500000, -63.500000) "></path>
                    <path d="M5.5,40 C8.53756612,40 11,37.5375661 11,34.5 C11,31.4624339 8.53756612,29 5.5,29 C2.46243388,29 0,31.4624339 0,34.5 C0,37.5375661 2.46243388,40 5.5,40 Z" id="Ellipse-110" transform="translate(5.500000, 34.500000) rotate(0.000000) translate(-5.500000, -34.500000) "></path>
                    <path d="M5.5,98 C8.53756612,98 11,95.5375661 11,92.5 C11,89.4624339 8.53756612,87 5.5,87 C2.46243388,87 0,89.4624339 0,92.5 C0,95.5375661 2.46243388,98 5.5,98 Z" id="Ellipse-115" transform="translate(5.500000, 92.500000) rotate(0.000000) translate(-5.500000, -92.500000) "></path>
                </g>
            </g>
        </g>
    </g>
</svg>