<?xml version="1.0" encoding="UTF-8"?>
<svg width="8px" height="9px" viewBox="0 0 8 9" version="1.1" xmlns="http://www.w3.org/2000/svg" xmlns:xlink="http://www.w3.org/1999/xlink">
    <title>Icon/Phone</title>
    <g id="Page-1" stroke="none" stroke-width="1" fill="none" fill-rule="evenodd">
        <g id="About" transform="translate(-1322.000000, -12.000000)">
            <g id="Icon/Phone" transform="translate(1320.000000, 10.000000)">
                <path d="M0,0 L13,0 L13,14 L0,14 L0,0 Z" id="Icon/Phone-(Background)"></path>
                <path d="M0,0 L24,0 L24,24 L0,24 L0,0 Z" id="Rectangle-552" fill-opacity="0" fill="#C4C4C4"></path>
                <path d="M7.92938352,7.75509963 C7.7328225,7.68174382 7.49118781,7.7490403 7.37122306,7.88385367 L6.57945933,8.53783615 C5.66123933,8.00153215 5.09563352,7.38286315 4.61218033,6.38571776 L5.19229104,5.5419654 C5.34300799,5.37727599 5.3970675,5.13670269 5.332299,4.91097707 C5.19916783,4.46975874 5.1315387,4.00681047 5.1315387,3.53489344 C5.13155704,3.19397755 4.87807595,2.91662598 4.56651968,2.91662598 L3.27335026,2.91662598 C2.961794,2.91662598 2.70831299,3.19397755 2.70831299,3.53487339 C2.70831299,7.44243461 5.61368962,10.6213937 9.18494235,10.6213937 C9.49649861,10.6213937 9.74997997,10.3440423 9.74997997,10.0031465 L9.74997997,8.59215076 C9.74997997,8.25127498 9.49648029,7.97392318 9.18494235,7.97392318 C8.75382475,7.97392318 8.33051909,7.9001459 7.92938352,7.75509963 Z" id="Phone" fill="#252932" fill-rule="nonzero"></path>
            </g>
        </g>
    </g>
</svg>