<?xml version="1.0" encoding="UTF-8"?>
<svg width="24px" height="24px" viewBox="0 0 24 24" version="1.1" xmlns="http://www.w3.org/2000/svg" xmlns:xlink="http://www.w3.org/1999/xlink">
    <title>Icon/Search</title>
    <g id="Page-1" stroke="none" stroke-width="1" fill="none" fill-rule="evenodd">
        <g id="About" transform="translate(-1372.000000, -50.000000)">
            <g id="Icon/Search" transform="translate(1372.000000, 50.000000)">
                <path d="M0,0 L24,0 L24,24 L0,24 L0,0 Z" id="Icon/Search-(Background)"></path>
                <path d="M16.8817986,15.4680004 C18.2037997,13.835016 18.9997764,11.7599997 18.9997764,9.50001526 C18.9997764,4.2620151 14.7378073,0 9.49986458,0 C4.26192187,0 0,4.26196861 0,9.49996877 C0,14.7379689 4.26196908,18.9999847 9.49991179,18.9999847 C11.7598714,18.9999847 13.8348642,18.2040008 15.4678308,16.8819852 L22.2927562,23.7069855 C22.4877541,23.9019855 22.7437346,24 22.999763,24 C23.2557915,24 23.5117734,23.9019855 23.7067713,23.7069855 C24.0977513,23.3160011 24.097751,22.6839851 23.706724,22.2930007 L16.8817986,15.4680004 Z M2,9.49996877 C2,5.36395311 5.36394149,1.99996877 9.49991179,1.99996877 C13.6358821,1.99996877 16.9998288,5.36395311 16.9998288,9.49996877 C16.9998288,13.6359844 13.6358352,16.9999695 9.49991179,16.9999695 C5.36394149,16.9999695 2,13.6359844 2,9.49996877 Z" id="Search" fill="#252932"></path>
            </g>
        </g>
    </g>
</svg>