<?xml version="1.0" encoding="UTF-8"?>
<svg width="24px" height="24px" viewBox="0 0 24 24" version="1.1" xmlns="http://www.w3.org/2000/svg" xmlns:xlink="http://www.w3.org/1999/xlink">
    <title>Icon/Social Youtube</title>
    <g id="Page-1" stroke="none" stroke-width="1" fill="none" fill-rule="evenodd">
        <g id="About" transform="translate(-1169.000000, -4428.000000)" fill="#FFFFFF">
            <g id="Desktop/Footer" transform="translate(0.000000, 3574.000000)">
                <g id="Icon/Social-Youtube" transform="translate(1169.000000, 854.000000)">
                    <path d="M0,0 L24,0 L24,24 L0,24 L0,0 Z" id="Rectangle-455" fill-opacity="0"></path>
                    <path d="M12,2 C17.5200015,2 22,6.48000045 22,12 C22,17.5200015 17.5200015,22 12,22 C6.48000045,22 2,17.5200015 2,12 C2,6.48000045 6.48000045,2 12,2 Z M12.0000305,4 C7.59003067,4 4.00003052,7.59000015 4.00003052,12 C4.00003052,16.4099998 7.59003067,20 12.0000305,20 C16.4100304,20 20.0000305,16.4099998 20.0000305,12 C20.0000305,7.59000015 16.4100304,4 12.0000305,4 Z M10.2,8.9 C10.5313708,8.4581722 11.1581722,8.36862915 11.6,8.7 L11.6,8.7 L14.9333333,11.2 C15.009139,11.2568542 15.0764791,11.3241943 15.1333333,11.4 C15.4647042,11.8418278 15.3751611,12.4686292 14.9333333,12.8 L14.9333333,12.8 L11.6,15.3 C11.4269038,15.4298221 11.2163702,15.5 11,15.5 C10.4477153,15.5 10,15.0522847 10,14.5 L10,14.5 L10,9.5 C10,9.28362979 10.0701779,9.07309617 10.2,8.9 Z" id="Mask"></path>
                </g>
            </g>
        </g>
    </g>
</svg>