<?xml version="1.0" encoding="UTF-8"?>
<svg width="24px" height="24px" viewBox="0 0 24 24" version="1.1" xmlns="http://www.w3.org/2000/svg" xmlns:xlink="http://www.w3.org/1999/xlink">
    <title>Icon/Social Instagram</title>
    <g id="Page-1" stroke="none" stroke-width="1" fill="none" fill-rule="evenodd">
        <g id="About" transform="translate(-1117.000000, -4428.000000)" fill="#FFFFFF">
            <g id="Desktop/Footer" transform="translate(0.000000, 3574.000000)">
                <g id="Icon/Social-Instagram" transform="translate(1117.000000, 854.000000)">
                    <path d="M0,0 L24,0 L24,24 L0,24 L0,0 Z" id="Rectangle-454" fill-opacity="0"></path>
                    <path d="M16.2940011,4.953125 C17.7863164,4.953125 19,6.16712637 19,7.66044238 L19,16.2551955 C19,17.7490076 17.7863166,18.9630089 16.294497,18.9630089 L7.70550322,18.9630089 C6.21318787,18.9630089 5,17.7490076 5,16.2551955 L5,7.66044238 C5,6.16712637 6.21318787,4.953125 7.70550322,4.953125 L16.2940011,4.953125 Z M8.451981,10.5200195 L6.36224365,10.5200195 L6.36224365,16.2551458 C6.36224365,16.9963464 6.96363185,17.5966496 7.70384013,17.5966496 L16.2923385,17.5966496 C17.0315552,17.5966496 17.633935,16.9963464 17.633935,16.2551458 L17.633935,10.5200195 L15.5432055,10.5200195 C15.7251589,10.9635492 15.8277873,11.4492489 15.8277873,11.957274 C15.8277873,14.0692492 14.1103847,15.7887949 11.9988327,15.7887949 C9.88728074,15.7887949 8.1703746,14.0692492 8.1703746,11.957274 C8.1703746,11.4492489 8.27151496,10.9635492 8.451981,10.5200195 Z M12.0007165,9.49121094 C11.1782077,9.49121094 10.4508897,9.89802786 10.0022035,10.5191679 C9.71068144,10.9240003 9.53666061,11.4196226 9.53616333,11.9564225 C9.53467747,13.3162825 10.6407757,14.422626 11.9992289,14.422626 C13.3571865,14.422626 14.4642763,13.3167785 14.4642763,11.9569185 C14.4642763,11.4201186 14.2887683,10.9244965 13.9982377,10.519664 C13.5505431,9.898524 12.8227294,9.49121094 12.0007165,9.49121094 Z M17.3804691,6.56616211 L17.0715943,6.56715435 L15.0071411,6.57360389 L15.0150737,8.94852257 L17.3804691,8.94058478 L17.3804691,6.56616211 Z" id="Combined-Shape2"></path>
                </g>
            </g>
        </g>
    </g>
</svg>