<?xml version="1.0" encoding="UTF-8"?>
<svg width="24px" height="24px" viewBox="0 0 24 24" version="1.1" xmlns="http://www.w3.org/2000/svg" xmlns:xlink="http://www.w3.org/1999/xlink">
    <title>Icon/Social Twitter</title>
    <g id="Page-1" stroke="none" stroke-width="1" fill="none" fill-rule="evenodd">
        <g id="About" transform="translate(-1013.000000, -4428.000000)" fill="#FFFFFF">
            <g id="Desktop/Footer" transform="translate(0.000000, 3574.000000)">
                <g id="Icon/Social-Twitter" transform="translate(1013.000000, 854.000000)">
                    <path d="M0,0 L24,0 L24,24 L0,24 L0,0 Z" id="Rectangle-452" fill-opacity="0"></path>
                    <path d="M18.1732429,6.44576985 C17.4074981,5.71658866 16.5058952,5.37053644 15.4684345,5.41997245 L15.4313829,5.34581848 L15.4560846,5.33345946 C16.3947395,5.12335641 16.9505217,4.90089436 17.1234318,4.65371428 C17.1728347,4.45597023 17.1110806,4.34473921 16.9011183,4.3200212 C16.4317909,4.38181622 15.9871653,4.48068828 15.604293,4.64135533 C16.0983218,4.32002123 16.283583,4.09755915 16.1724265,3.98632812 C15.6907484,3.99868713 15.1596669,4.2458672 14.6162351,4.74022734 C14.8138467,4.39417524 14.9003014,4.19643118 14.8508985,4.17171317 C14.5791826,4.34473922 14.3568699,4.5424833 14.1592583,4.75258635 C13.7393338,5.22222849 13.4058639,5.65479346 13.1464988,6.05028157 L13.1341489,6.0749996 C12.4795606,7.15023293 12.0102325,8.22546615 11.7385167,9.3254174 L11.6397108,9.4119304 L11.61501,9.42428953 C11.219787,8.92992939 10.7381086,8.50972329 10.1699754,8.17603021 C9.50303644,7.7311061 8.71259013,7.3232591 7.79863672,6.91541198 C6.81057895,6.39633384 5.79781972,5.97612771 4.78506055,5.64243463 C4.77270982,6.79182194 5.34084289,7.69402917 6.44005709,8.36141533 L6.44005709,8.37377447 C6.0571847,8.37377447 5.67431258,8.43556943 5.30379093,8.54680045 C5.37789526,9.60967477 6.13128896,10.338856 7.55162203,10.7343441 L7.53927165,10.7590619 C6.98348918,10.7219848 6.52651209,10.9197288 6.16834117,11.3275759 C6.63766861,12.2421421 7.46516688,12.6747075 8.66318696,12.6499895 C8.42852324,12.7735796 8.2432628,12.8971691 8.11975558,13.0454771 C7.8974426,13.2802982 7.82333826,13.5521964 7.8974426,13.8611715 C8.15680776,14.3308136 8.61378414,14.5409168 9.29307383,14.5038398 L9.33012592,14.5532764 L9.31777554,14.5779937 C8.14445693,15.789176 6.72412387,16.3329726 5.06912709,16.2217415 L5.04442562,16.2341007 C4.03166644,16.2217417 2.94480298,15.7397402 1.77148438,14.7757379 C2.94480298,16.4689214 4.51334462,17.6924631 6.45240795,18.4710803 C8.6631872,19.2002615 10.8863171,19.2620564 13.0970963,18.6317472 L13.1341489,18.6317472 C15.2831746,18.013797 17.0987299,16.7284607 18.605518,14.8004562 C19.2971585,13.799377 19.7294333,12.8353743 19.9023434,11.908449 C21.0262591,11.9455261 21.8290563,11.624192 22.3354359,10.9320878 L22.323086,10.90737 C21.9402136,11.0433191 21.2115215,11.0062422 20.1370087,10.7837801 L20.1370087,10.6601897 C21.322678,10.5242407 22.0266679,10.1411117 22.2489808,9.51080253 C21.4214825,9.83213662 20.6063354,9.84449587 19.8035385,9.5355208 C19.6553298,8.42321053 19.1242479,7.39741314 18.2102945,6.47048788 L18.1732429,6.44576985 Z" id="Mask"></path>
                </g>
            </g>
        </g>
    </g>
</svg>