<?xml version="1.0" encoding="UTF-8"?>
<svg width="24px" height="24px" viewBox="0 0 24 24" version="1.1" xmlns="http://www.w3.org/2000/svg" xmlns:xlink="http://www.w3.org/1999/xlink">
    <title>Icon/Social LinkedIn</title>
    <g id="Page-1" stroke="none" stroke-width="1" fill="none" fill-rule="evenodd">
        <g id="About" transform="translate(-1065.000000, -4428.000000)" fill="#FFFFFF">
            <g id="Desktop/Footer" transform="translate(0.000000, 3574.000000)">
                <g id="Icon/Social-LinkedIn" transform="translate(1065.000000, 854.000000)">
                    <path d="M0,0 L24,0 L24,24 L0,24 L0,0 Z" id="Rectangle-453" fill-opacity="0"></path>
                    <path d="M8.19636869,9.37963867 L8.19636869,18.4647665 L5.1786499,18.4647665 L5.1786499,9.37963867 L8.19636869,9.37963867 Z M15.605538,9.16552734 C17.5294747,9.16552734 18.9869299,10.3840968 19.0761421,12.9967526 L19.0804739,13.2539482 L19.0804739,18.4639874 L16.0618544,18.4639874 L16.0618544,13.6031162 C16.0618544,12.3826046 15.626024,11.5491065 14.5330715,11.5491065 C13.6990058,11.5491065 13.2035191,12.1102535 12.9847035,12.6536041 C12.9052365,12.8477867 12.8847506,13.1174348 12.8847506,13.3897859 L12.8847506,18.4637621 L9.86590576,18.4637621 C9.87629587,16.3528112 9.88268978,14.6057908 9.88508749,13.2227011 L9.88583345,12.6888749 C9.88592225,12.6031387 9.8859933,12.5190201 9.88604658,12.436519 L9.88604658,11.7376802 C9.8859933,11.6648838 9.88592225,11.5937049 9.88583345,11.5241435 L9.88508749,11.1261847 C9.88268978,10.1798118 9.87629587,9.59736947 9.86590576,9.3788578 L12.8849757,9.3788578 L12.8849757,10.6662745 C13.2861376,10.0485849 14.0015656,9.16552734 15.605538,9.16552734 Z M6.70820246,5 L6.87661894,5.00620063 C7.80966355,5.07602227 8.37677152,5.72779638 8.39569402,6.5694541 C8.39569402,7.4416984 7.74104825,8.13958406 6.68816697,8.13958406 L6.68816697,8.13958406 L6.66858159,8.13958406 C5.65599658,8.13958406 5,7.4416984 5,6.5694541 C5,5.6782871 5.6755819,5 6.70820246,5 L6.70820246,5 Z" id="Mask"></path>
                </g>
            </g>
        </g>
    </g>
</svg>