<?xml version="1.0" encoding="UTF-8"?>
<svg width="16px" height="19px" viewBox="0 0 16 19" version="1.1" xmlns="http://www.w3.org/2000/svg" xmlns:xlink="http://www.w3.org/1999/xlink">
    <title>Icon/Support</title>
    <g id="Page-1" stroke="none" stroke-width="1" fill="none" fill-rule="evenodd">
        <g id="About" transform="translate(-1178.000000, -7.000000)" fill="#252932">
            <g id="Icon/Support" transform="translate(1178.000000, 7.000820)">
                <path d="M13.3352087,2.38432633 L13.3352087,0.334900856 L12.2102014,0.334900856 L12.2102014,2.38432633 L10.920381,1.07385939 L10.125,1.88197157 L12.7727051,4.57205582 L15.4204102,1.88197157 L14.6250292,1.07385939 L13.3352087,2.38432633 Z" id="Vector" fill-rule="nonzero" transform="translate(12.772705, 2.453478) scale(1, -1) translate(-12.772705, -2.453478) "></path>
                <path d="M12.2099915,18.2882423 L13.3349915,18.2882423 L13.3349915,16.0022114 C13.3315813,12.8473103 10.8151671,10.2905989 7.70999146,10.2871342 L7.70999146,11.4301496 C10.1941322,11.4329714 12.2072141,13.4782903 12.2099915,16.0022114 L12.2099915,18.2882423 Z" id="Vector" fill-rule="nonzero" transform="translate(10.522491, 14.287688) scale(1, -1) translate(-10.522491, -14.287688) "></path>
                <path d="M3.20996094,2.67028809e-05 L2.08496094,2.67028809e-05 L2.08496094,2.28605706 C2.08837109,5.44095745 4.60478526,7.9976682 7.70996094,8.00113297 L7.70996094,6.85811778 C5.22582018,6.85529597 3.21273828,4.80997759 3.20996094,2.28605706 L3.20996094,2.67028809e-05 Z" id="Vector" fill-rule="nonzero" transform="translate(4.897461, 4.000580) scale(1, -1) translate(-4.897461, -4.000580) "></path>
                <path d="M3.20996094,9.14413071 L3.20996094,10.2871437 L2.08496094,10.2871437 L2.08496094,9.14413071 L3.20996094,9.14413071 Z" id="Vector" transform="translate(2.647461, 9.715637) scale(1, -1) translate(-2.647461, -9.715637) "></path>
                <path d="M3.20996094,11.4301434 L3.20996094,12.5731544 L2.08496094,12.5731544 L2.08496094,11.4301434 L3.20996094,11.4301434 Z" id="Vector" transform="translate(2.647461, 12.001649) scale(1, -1) translate(-2.647461, -12.001649) "></path>
                <path d="M3.21020884,17.9537697 L3.21020884,15.904346 L4.50003009,17.2148111 L5.29541016,16.4067007 L2.64770508,13.7166176 L0,16.4067007 L0.795380337,17.2148111 L2.08520145,15.904346 L2.08520145,17.9537697 L3.21020884,17.9537697 Z" id="Vector" fill-rule="nonzero" transform="translate(2.647705, 15.835194) scale(1, -1) translate(-2.647705, -15.835194) "></path>
                <path d="M13.3349609,8.00106144 L13.3349609,9.1440773 L12.2099609,9.1440773 L12.2099609,8.00106144 L13.3349609,8.00106144 Z" id="Vector" transform="translate(12.772461, 8.572569) scale(1, -1) translate(-12.772461, -8.572569) "></path>
                <path d="M13.3349609,5.71505165 L13.3349609,6.85806656 L12.2099609,6.85806656 L12.2099609,5.71505165 L13.3349609,5.71505165 Z" id="Vector" transform="translate(12.772461, 6.286559) scale(1, -1) translate(-12.772461, -6.286559) "></path>
            </g>
        </g>
    </g>
</svg>